<svg id="Layer_1" xmlns="http://www.w3.org/2000/svg" viewBox="0 0 512 512"><style>.st0{fill:#66a900}</style><path class="st0" d="M257 349.7c18 0 32.7-14.7 32.7-32.7 0-18-14.7-32.7-32.7-32.7-18 0-32.7 14.7-32.7 32.7.1 18 14.7 32.7 32.7 32.7zm0-50.4c9.8 0 17.7 7.9 17.7 17.7 0 9.8-7.9 17.7-17.7 17.7-9.8 0-17.7-7.9-17.7-17.7.1-9.7 8-17.7 17.7-17.7zm145.1-191c29.9 0 54.2-24.3 54.2-54.2 0-29.9-24.3-54.2-54.2-54.2-29.9 0-54.2 24.3-54.2 54.2 0 29.9 24.3 54.2 54.2 54.2zm0-93.3c21.6 0 39.2 17.6 39.2 39.2s-17.6 39.2-39.2 39.2-39.2-17.6-39.2-39.2S380.5 15 402.1 15zm80.2 176.7c-4.1 0-7.5 3.4-7.5 7.5v102.6c0 2.7-2.2 4.8-4.8 4.8h-18.3V174.3c0-4.1-3.4-7.5-7.5-7.5s-7.5 3.4-7.5 7.5v317.8c0 2.7-2.2 4.8-4.8 4.8h-17.4c-2.7 0-4.8-2.2-4.8-4.8V372.8c0-4.1-3.4-7.5-7.5-7.5s-7.5 3.4-7.5 7.5v119.3c0 2.7-2.2 4.8-4.8 4.8h-17.4c-2.7 0-4.8-2.2-4.8-4.8V174.3c0-4.1-3.4-7.5-7.5-7.5s-7.5 3.4-7.5 7.5v132.4h-18.3c-2.7 0-4.8-2.2-4.8-4.8V174.3c0-24.6 20-44.7 44.7-44.7h56.2c24.6 0 44.7 20 44.7 44.7 0 4.1 3.4 7.5 7.5 7.5s7.5-3.4 7.5-7.5c0-32.9-26.8-59.7-59.7-59.7H374c-32.9 0-59.7 26.8-59.7 59.7v127.6c0 10.9 8.9 19.8 19.8 19.8h18.3v170.5c0 10.9 8.9 19.8 19.8 19.8h17.4c4.7 0 9-1.6 12.3-4.3 3.4 2.7 7.7 4.3 12.3 4.3h17.4c10.9 0 19.8-8.9 19.8-19.8V321.7H470c10.9 0 19.8-8.9 19.8-19.8V199.2c0-4.1-3.3-7.5-7.5-7.5zm-382.1-37.5c29.9 0 54.2-24.3 54.2-54.2 0-29.9-24.3-54.2-54.2-54.2C70.3 45.8 46 70.2 46 100c0 29.9 24.3 54.2 54.2 54.2zm0-93.4c21.6 0 39.2 17.6 39.2 39.2s-17.6 39.2-39.2 39.2S61 121.6 61 100s17.6-39.2 39.2-39.2zm24.6 100.4H75.5c-29.4 0-53.3 23.9-53.3 53.3v112c0 10.1 8.2 18.3 18.3 18.3h.2l-5.2 47.3c-.2 2.1.4 4.2 1.9 5.8 1.4 1.6 3.5 2.5 5.6 2.5h12.7v93.2c0 10.1 8.2 18.3 18.3 18.3h15.3c4.1 0 7.8-1.3 10.8-3.6 3 2.2 6.8 3.6 10.8 3.6h15.3c10.1 0 18.3-8.2 18.3-18.3v-41.4c0-4.1-3.4-7.5-7.5-7.5s-7.5 3.4-7.5 7.5v41.4c0 1.8-1.5 3.3-3.3 3.3H111c-1.8 0-3.3-1.5-3.3-3.3v-80.1c0-4.1-3.4-7.5-7.5-7.5s-7.5 3.4-7.5 7.5v80.1c0 1.8-1.5 3.3-3.3 3.3H74c-1.8 0-3.3-1.5-3.3-3.3v-93.2h59v27.8c0 4.1 3.4 7.5 7.5 7.5s7.5-3.4 7.5-7.5v-27.8h12.7c2.1 0 4.2-.9 5.6-2.5 1.4-1.6 2.1-3.7 1.9-5.8l-5.2-47.3h.2c10.1 0 18.3-8.2 18.3-18.3v-112c-.1-29.3-24-53.3-53.4-53.3zm38.3 165.4c0 1.8-1.5 3.3-3.3 3.3h-1.9l-13.7-125c-.5-4.1-4.2-7.1-8.3-6.6-4.1.5-7.1 4.2-6.6 8.3L149 385.5H51.4L71 206.6c.5-4.1-2.5-7.8-6.6-8.3-4.1-.4-7.8 2.5-8.3 6.6l-13.7 125h-1.9c-1.8 0-3.3-1.5-3.3-3.3v-112c0-21.1 17.2-38.3 38.3-38.3h49.3c21.1 0 38.3 17.2 38.3 38.3v112z"/><path class="st0" d="M313.9 324.8c-5.4.2-10.3 2.4-14 6.3l-28 29.8h-29l-28-29.8c-7.6-8.1-20.3-8.5-28.4-.9-8.1 7.6-8.5 20.3-.9 28.4l32.4 34.5v99.2c0 10.8 8.8 19.6 19.6 19.6h39.5c10.8 0 19.6-8.8 19.6-19.6v-41.2c0-4.1-3.4-7.5-7.5-7.5s-7.5 3.4-7.5 7.5v41.2c0 2.5-2.1 4.6-4.6 4.6h-12.6v-62.6c0-4.1-3.4-7.5-7.5-7.5s-7.5 3.4-7.5 7.5V497h-11.9c-2.5 0-4.6-2.1-4.6-4.6V390.2c0-1.9-.7-3.7-2-5.1l-34.5-36.7c-1.9-2.1-1.8-5.3.2-7.2 2.1-1.9 5.3-1.8 7.2.2l30.2 32.2c1.4 1.5 3.4 2.4 5.5 2.4H275c2.1 0 4-.9 5.5-2.4l30.2-32.2c1.9-2.1 5.2-2.2 7.2-.2 2.1 1.9 2.2 5.2.2 7.2L283.8 385c-1.3 1.4-2 3.2-2 5.1v36.1c0 4.1 3.4 7.5 7.5 7.5s7.5-3.4 7.5-7.5v-33.1l32.4-34.5c7.6-8.1 7.2-20.8-.9-28.4-3.9-3.7-9-5.6-14.4-5.4z"/></svg>